<?xml version="1.0" standalone="no"?>
<!DOCTYPE svg PUBLIC "-//W3C//DTD SVG 20010904//EN"
 "http://www.w3.org/TR/2001/REC-SVG-20010904/DTD/svg10.dtd">
<svg version="1.0" xmlns="http://www.w3.org/2000/svg"
 width="152.000000pt" height="152.000000pt" viewBox="0 0 152.000000 152.000000"
 preserveAspectRatio="xMidYMid meet">
<metadata>
Created by potrace 1.11, written by Peter Selinger 2001-2013
</metadata>
<g transform="translate(0.000000,152.000000) scale(0.100000,-0.100000)"
fill="#000000" stroke="none">
<path d="M366 1104 c-34 -11 -64 -31 -101 -68 -66 -65 -95 -138 -102 -256 -12
-189 49 -328 171 -393 34 -18 57 -22 141 -22 84 0 107 4 140 22 55 29 110 89
135 145 52 118 49 313 -6 425 -65 134 -221 195 -378 147z m235 -65 c92 -51
135 -163 127 -334 -9 -200 -90 -295 -253 -295 -163 0 -244 95 -253 295 -8 183
33 284 138 338 49 25 63 28 126 24 50 -3 84 -11 115 -28z"/>
<path d="M920 741 l0 -371 25 0 25 0 0 149 0 148 113 7 c61 4 128 11 148 16
97 26 153 104 153 210 0 74 -17 114 -64 153 -46 39 -91 49 -252 54 l-148 5 0
-371z m336 291 c92 -48 101 -192 16 -264 -36 -30 -122 -48 -230 -48 l-72 0 0
171 0 171 123 -4 c99 -4 130 -8 163 -26z"/>
</g>
</svg>
